Coordinates
version=1
nRows=65
nColumns=12
inDegrees=yes

Units are S.I. units (second, meters, Newtons, ...)
Angles are in degrees

endheader
time	SC_y	SC_z	SC_x	AC_y	AC_z	AC_x	GH_y	GH_z	GH_yy	EL_x	PS_y
       0.0              -55.58          33.93          74.22          40.03         -6.722         -5.041         -104.8          72.21          8.871          33.83          116.8
  0.009336              -55.58          33.93          74.22          40.03         -6.721         -5.038         -104.8          72.21          8.881          33.83          116.8
   0.01867              -55.57          33.93          74.22          40.03         -6.721         -5.036         -104.8          72.21          8.891          33.83          116.8
   0.02801              -55.57          33.93          74.22          40.03         -6.721         -5.033         -104.8          72.21          8.901          33.83          116.8
   0.03734              -55.57          33.93          74.22          40.03         -6.721         -5.029         -104.7           72.2          8.913          33.84          116.8
   0.04668              -55.56          33.93          74.22          40.03         -6.721         -5.026         -104.7           72.2          8.925          33.84          116.8
   0.05601              -55.56          33.93          74.22          40.03          -6.72         -5.023         -104.7           72.2          8.937          33.84          116.8
   0.06535              -55.56          33.93          74.23          40.03          -6.72         -5.019         -104.7           72.2          8.951          33.84          116.8
   0.07469              -55.55          33.93          74.23          40.03          -6.72         -5.015         -104.6           72.2          8.966          33.85          116.7
   0.08402              -55.55          33.93          74.23          40.03          -6.72          -5.01         -104.6           72.2          8.982          33.85          116.7
   0.09336              -55.54          33.92          74.23          40.03         -6.719         -5.006         -104.5          72.19          8.999          33.85          116.7
    0.1027              -55.54          33.92          74.23          40.03         -6.719         -5.001         -104.5          72.19          9.017          33.85          116.7
     0.112              -55.53          33.92          74.24          40.03         -6.719         -4.995         -104.5          72.19          9.036          33.86          116.7
    0.1214              -55.53          33.92          74.24          40.03         -6.718         -4.989         -104.4          72.19          9.058          33.86          116.7
    0.1307              -55.52          33.92          74.24          40.03         -6.718         -4.983         -104.4          72.18           9.08          33.86          116.7
      0.14              -55.51          33.92          74.24          40.03         -6.717         -4.976         -104.3          72.18          9.105          33.87          116.7
    0.1494               -55.5          33.92          74.25          40.03         -6.717         -4.968         -104.3          72.17          9.132          33.87          116.7
    0.1587               -55.5          33.92          74.25          40.03         -6.716          -4.96         -104.2          72.17          9.162          33.88          116.7
     0.168              -55.49          33.92          74.25          40.03         -6.716         -4.951         -104.1          72.17          9.194          33.88          116.7
    0.1774              -55.48          33.91          74.26          40.02         -6.715         -4.942         -104.1          72.16          9.229          33.89          116.7
    0.1867              -55.46          33.91          74.26          40.02         -6.715         -4.931         -104.0          72.16          9.268          33.89          116.7
     0.196              -55.45          33.91          74.27          40.02         -6.714         -4.919         -103.9          72.15           9.31           33.9          116.6
    0.2054              -55.44          33.91          74.27          40.02         -6.713         -4.906         -103.8          72.14          9.358          33.91          116.6
    0.2147              -55.42          33.91          74.28          40.02         -6.712         -4.892         -103.7          72.14           9.41          33.92          116.6
    0.2241              -55.41           33.9          74.28          40.02         -6.711         -4.876         -103.5          72.13          9.467          33.93          116.6
    0.2334              -55.39           33.9          74.29          40.02          -6.71         -4.858         -103.4          72.12          9.532          33.94          116.6
    0.2427              -55.37           33.9           74.3          40.01         -6.709         -4.837         -103.3          72.11          9.604          33.95          116.5
    0.2521              -55.34          33.89          74.31          40.01         -6.707         -4.815         -103.1           72.1          9.686          33.96          116.5
    0.2614              -55.32          33.89          74.32          40.01         -6.706         -4.789         -102.9          72.09          9.778          33.98          116.5
    0.2707              -55.29          33.88          74.33          40.01         -6.704          -4.76         -102.7          72.07          9.882           34.0          116.5
    0.2801              -55.25          33.88          74.34           40.0         -6.702         -4.727         -102.4          72.06           10.0          34.02          116.4
    0.2894              -55.21          33.87          74.36           40.0         -6.699         -4.689         -102.1          72.04          10.14          34.04          116.4
    0.2987              -55.17          33.86          74.37           40.0         -6.696         -4.645         -101.8          72.02           10.3          34.06          116.3
    0.3081              -55.11          33.86           74.4          39.99         -6.693         -4.595         -101.4          71.99          10.48          34.09          116.3
    0.3174              -55.05          33.85          74.42          39.99         -6.689         -4.535         -100.9          71.96          10.69          34.13          116.2
    0.3267              -54.98          33.83          74.45          39.98         -6.685         -4.465         -100.4          71.93          10.95          34.17          116.1
    0.3361              -54.89          33.82          74.48          39.97          -6.68         -4.381         -99.73          71.89          11.25          34.22          116.0
    0.3454              -54.79           33.8          74.52          39.96         -6.673         -4.281         -98.95          71.84          11.61          34.28          115.9
    0.3548              -54.66          33.78          74.57          39.95         -6.666          -4.16         -98.02          71.78          12.05          34.35          115.8
    0.3641              -54.51          33.76          74.63          39.94         -6.656         -4.012         -96.88          71.71          12.58          34.44          115.6
    0.3734              -54.32          33.73           74.7          39.92         -6.644          -3.83         -95.47          71.62          13.24          34.55          115.4
    0.3828              -54.08          33.69          74.79           39.9          -6.63         -3.602         -93.71          71.51          14.06          34.68          115.1
    0.3921              -53.78          33.64          74.91          39.88         -6.612         -3.315         -91.49          71.37          15.09          34.85          114.8
    0.4014               -53.4          33.58          75.05          39.84         -6.589         -2.951         -88.68           71.2           16.4          35.07          114.3
    0.4108              -52.91           33.5          75.24           39.8         -6.559         -2.484         -85.07          70.97          18.09          35.35          113.8
    0.4201              -52.29           33.4          75.48          39.75         -6.521         -1.885         -80.45          70.68          20.24           35.7          113.1
    0.4294              -51.49          33.28          75.78          39.68         -6.472          -1.12         -74.54          70.31           23.0          36.16          112.2
    0.4388              -50.49          33.12          76.16          39.59         -6.411        -0.1584         -67.12          69.84          26.47          36.73          111.1
    0.4481              -49.27          32.92          76.63          39.49         -6.336          1.014         -58.06          69.27          30.69          37.42          109.7
    0.4574              -47.85          32.69          77.17          39.36          -6.25          2.372         -47.57          68.61          35.58          38.23          108.1
    0.4668              -46.32          32.45          77.76          39.23         -6.156          3.843         -36.21           67.9          40.88           39.1          106.4
    0.4761              -44.78           32.2          78.35           39.1         -6.063          5.314         -24.85          67.18          46.19          39.97          104.7
    0.4855              -43.37          31.98          78.89          38.97         -5.976          6.673         -14.36          66.52          51.08          40.78          103.1
    0.4948              -42.14          31.78          79.36          38.87         -5.902          7.845          -5.31          65.95           55.3          41.47          101.8
    0.5041              -41.14          31.62          79.74          38.78          -5.84          8.807          2.118          65.49          58.77          42.04          100.6
    0.5135              -40.34          31.49          80.04          38.71         -5.792          9.571          8.025          65.12          61.53           42.5          99.75
    0.5228              -39.72          31.39          80.28          38.66         -5.754          10.17          12.65          64.83          63.68          42.85          99.06
    0.5321              -39.23          31.31          80.47          38.61         -5.724          10.64          16.25           64.6          65.36          43.13          98.51
    0.5415              -38.85          31.25          80.61          38.58         -5.701           11.0          19.07          64.42          66.68          43.34          98.09
    0.5508              -38.55           31.2          80.73          38.55         -5.683          11.29          21.28          64.28          67.71          43.51          97.75
    0.5601              -38.32          31.17          80.82          38.53         -5.668          11.52          23.04          64.17          68.53          43.65          97.49
    0.5695              -38.13          31.14          80.89          38.52         -5.656           11.7          24.45          64.08          69.19          43.76          97.28
    0.5788              -37.97          31.11          80.95           38.5         -5.647          11.85          25.59          64.01          69.72          43.85           97.1
    0.5881              -37.84          31.09           81.0          38.49         -5.639          11.97          26.53          63.95          70.16          43.92          96.96
    0.5975              -37.74          31.07          81.04          38.48         -5.633          12.07           27.3           63.9          70.52          43.98          96.85
